<svg xmlns="http://www.w3.org/2000/svg" width="68" height="68" viewBox="0 0 68 68">
  <g id="Group_371" data-name="Group 371" transform="translate(-147.243 -3646)">
    <path id="Rectangle_309" data-name="Rectangle 309" d="M.908,0H64.091A.909.909,0,0,1,65,.909V64.091a.909.909,0,0,1-.909.909H.908A.908.908,0,0,1,0,64.092V.908A.908.908,0,0,1,.908,0Z" transform="translate(148.743 3647.5)" fill="none" stroke="#a78a6a" stroke-linecap="round" stroke-width="3"/>
    <path id="Path_347" data-name="Path 347" d="M35.471,16.22c0,2.152-.976,3.893-2.182,3.893H7.24c-1.206,0-4.106-1.741-4.106-3.893s2.9-3.9,4.106-3.9H33.289c1.206,0,2.182,1.745,2.182,3.9" transform="translate(152.021 3663.677)" fill="#a78a6a"/>
    <path id="Path_348" data-name="Path 348" d="M3.266,16.061a3.72,3.72,0,0,1,3.846-3.586h42.13a3.72,3.72,0,0,1,3.846,3.586,3.722,3.722,0,0,1-3.846,3.588H7.112A3.722,3.722,0,0,1,3.266,16.061Z" transform="translate(152.195 3664.025)" fill="none" stroke="#a78a6a" stroke-linecap="round" stroke-width="1"/>
  </g>
</svg>
