<svg xmlns="http://www.w3.org/2000/svg" width="68" height="68" viewBox="0 0 68 68">
  <g id="Group_345" data-name="Group 345" transform="translate(0.664 0.664)">
    <path id="Path_345" data-name="Path 345" d="M63.2,65.375H2.546A2.177,2.177,0,0,1,.375,63.2V2.543A2.175,2.175,0,0,1,2.546.375H63.2a2.175,2.175,0,0,1,2.171,2.168V63.2A2.177,2.177,0,0,1,63.2,65.375Zm-5.511-7.369H8.057a.723.723,0,0,1-.724-.721V17.955a.725.725,0,0,1,.724-.726H57.693a.725.725,0,0,1,.724.726v39.33A.723.723,0,0,1,57.693,58.006ZM44.259,17.024,32.778,7.539c-.024-.017-.053-.024-.076-.038a.642.642,0,0,0-.127-.067.612.612,0,0,0-.134-.036.642.642,0,0,0-.27,0,.516.516,0,0,0-.131.038.745.745,0,0,0-.127.072.568.568,0,0,0-.074.041L20.911,17.1m2.168-.038,9.251-8.016L42.081,17.1M26.417,31.683c-.776,4.547-3.054,9.413-5.351,13.425H31.532A48.346,48.346,0,0,1,26.417,31.683Zm-14.2-9.843V53.306h2.555c.69-.893,11.617-15.259,11.187-25.307l.724-.033C27.031,34.874,30.641,43.4,37.4,53.306h4.821V45.469h4.79V38.114h6.913V21.84ZM42.946,53.306h4.069V46.025H42.946Zm4.79,0h6.189V38.838H47.736ZM20.648,45.832a81.733,81.733,0,0,1-4.967,7.474H36.527q-2.622-3.876-4.6-7.474Z" transform="translate(0.461 0.461)" fill="none" stroke="#a78a6a" stroke-linecap="round" stroke-width="3"/>
  </g>
</svg>
