<svg xmlns="http://www.w3.org/2000/svg" xmlns:xlink="http://www.w3.org/1999/xlink" width="65" height="66.098" viewBox="0 0 65 66.098">
  <defs>
    <clipPath id="clip-path">
      <rect id="Rectangle_313" data-name="Rectangle 313" width="65" height="65" fill="none"/>
    </clipPath>
  </defs>
  <g id="Group_392" data-name="Group 392" transform="translate(-153 -4071.902)">
    <g id="Group_355" data-name="Group 355" transform="translate(153 4073)">
      <g id="Group_354" data-name="Group 354" transform="translate(0 0)" clip-path="url(#clip-path)">
        <path id="Path_351" data-name="Path 351" d="M11.361,32.521a1.022,1.022,0,0,1-.809-.407,14.037,14.037,0,0,1-2.871-8.557c0-7.415,5.643-13.45,12.58-13.45a9.974,9.974,0,0,1,1,.047,1.124,1.124,0,0,1-.036,2.24H21.2a.651.651,0,0,1-.1-.006,8.351,8.351,0,0,0-.84-.039c-5.78,0-10.485,5.029-10.485,11.208a11.69,11.69,0,0,0,2.394,7.13,1.175,1.175,0,0,1-.143,1.577.99.99,0,0,1-.666.258" transform="translate(12.238 17.909)" fill="#a78a6a"/>
        <path id="Path_352" data-name="Path 352" d="M20.1,45.825a1.081,1.081,0,0,1-.21-.022A17.716,17.716,0,0,1,9.729,39.255,19.9,19.9,0,0,1,5.66,27.139c0-10.506,8-19.053,17.821-19.053a16.712,16.712,0,0,1,7.871,1.954,1.156,1.156,0,0,1,.477,1.5,1.018,1.018,0,0,1-1.4.51,14.772,14.772,0,0,0-6.945-1.724c-8.672,0-15.726,7.543-15.726,16.813,0,7.95,5.28,14.878,12.557,16.469a1.122,1.122,0,0,1,.817,1.322,1.069,1.069,0,0,1-1.027.9" transform="translate(9.018 14.329)" fill="#a78a6a"/>
        <path id="Path_353" data-name="Path 353" d="M37.49,25.462a.883.883,0,0,1-.226-.028C28.624,23.4,20.652,18.847,15.478,15.38,9.112,11.11,3.412,6.043.233,1.824A1.172,1.172,0,0,1,.391.249,1,1,0,0,1,1.864.419C7.4,7.756,22.934,19.773,37.713,23.247a1.124,1.124,0,0,1,.8,1.333,1.069,1.069,0,0,1-1.022.882" transform="translate(0.001 0)" fill="#a78a6a"/>
        <path id="Path_354" data-name="Path 354" d="M21.534,35.381a1.013,1.013,0,0,1-.659-.249C14.216,29.363,5.248,20.445.22,13.531A1.173,1.173,0,0,1,.406,11.96a1,1,0,0,1,1.47.2C6.8,18.932,15.631,27.7,22.195,33.391a1.172,1.172,0,0,1,.153,1.575,1.017,1.017,0,0,1-.814.416" transform="translate(0.001 20.776)" fill="#a78a6a"/>
        <path id="Path_355" data-name="Path 355" d="M17.13,14.368a2.246,2.246,0,1,0,2.1,2.243,2.175,2.175,0,0,0-2.1-2.243m0,6.725a4.349,4.349,0,0,1-4.193-4.482,4.349,4.349,0,0,1,4.193-4.482,4.349,4.349,0,0,1,4.193,4.482,4.349,4.349,0,0,1-4.193,4.482" transform="translate(20.612 21.492)" fill="#a78a6a"/>
        <path id="Path_356" data-name="Path 356" d="M21.981,11.943a2.246,2.246,0,1,0,2.1,2.243,2.177,2.177,0,0,0-2.1-2.243m0,6.725a4.349,4.349,0,0,1-4.193-4.482A4.349,4.349,0,0,1,21.981,9.7a4.349,4.349,0,0,1,4.193,4.482,4.349,4.349,0,0,1-4.193,4.482" transform="translate(28.341 17.195)" fill="#a78a6a"/>
        <path id="Path_357" data-name="Path 357" d="M26.024,14.773a2.246,2.246,0,1,0,2.1,2.243,2.175,2.175,0,0,0-2.1-2.243m0,6.725a4.349,4.349,0,0,1-4.193-4.482,4.349,4.349,0,0,1,4.193-4.482,4.349,4.349,0,0,1,4.193,4.482A4.349,4.349,0,0,1,26.024,21.5" transform="translate(34.782 22.21)" fill="#a78a6a"/>
        <path id="Path_358" data-name="Path 358" d="M25.62,19.624a2.246,2.246,0,1,0,2.1,2.243,2.177,2.177,0,0,0-2.1-2.243m0,6.725a4.349,4.349,0,0,1-4.193-4.482,4.349,4.349,0,0,1,4.193-4.482,4.349,4.349,0,0,1,4.193,4.482,4.349,4.349,0,0,1-4.193,4.482" transform="translate(34.139 30.806)" fill="#a78a6a"/>
        <path id="Path_359" data-name="Path 359" d="M21.577,17.2a2.246,2.246,0,1,0,2.1,2.243,2.175,2.175,0,0,0-2.1-2.243m0,6.725a4.349,4.349,0,0,1-4.193-4.482,4.349,4.349,0,0,1,4.193-4.482,4.349,4.349,0,0,1,4.193,4.482,4.349,4.349,0,0,1-4.193,4.482" transform="translate(27.697 26.507)" fill="#a78a6a"/>
        <path id="Path_360" data-name="Path 360" d="M21.577,22.454a2.246,2.246,0,1,0,2.1,2.243,2.175,2.175,0,0,0-2.1-2.243m0,6.725A4.349,4.349,0,0,1,17.384,24.7a4.349,4.349,0,0,1,4.193-4.482A4.349,4.349,0,0,1,25.771,24.7a4.349,4.349,0,0,1-4.193,4.482" transform="translate(27.697 35.821)" fill="#a78a6a"/>
        <path id="Path_361" data-name="Path 361" d="M16.321,20.433a2.246,2.246,0,1,0,2.1,2.243,2.177,2.177,0,0,0-2.1-2.243m0,6.725a4.349,4.349,0,0,1-4.193-4.482,4.349,4.349,0,0,1,4.193-4.482,4.349,4.349,0,0,1,4.193,4.482,4.349,4.349,0,0,1-4.193,4.482" transform="translate(19.323 32.24)" fill="#a78a6a"/>
        <path id="Path_362" data-name="Path 362" d="M20.863,26a.969.969,0,0,1-.389-.08A31.559,31.559,0,0,1,9.483,16.84a1.169,1.169,0,0,1,.22-1.566,1,1,0,0,1,1.465.233,29.581,29.581,0,0,0,10.083,8.327,1.149,1.149,0,0,1,.583,1.458,1.05,1.05,0,0,1-.972.7" transform="translate(14.782 26.676)" fill="#a78a6a"/>
        <path id="Path_363" data-name="Path 363" d="M19.8,27.822a.98.98,0,0,1-.529-.155c-.324-.2-7.964-5.023-10.368-8.494a1.172,1.172,0,0,1,.22-1.569,1,1,0,0,1,1.465.236c2.15,3.1,9.668,7.848,9.743,7.895a1.165,1.165,0,0,1,.373,1.536,1.034,1.034,0,0,1-.905.552" transform="translate(13.858 30.805)" fill="#a78a6a"/>
        <path id="Path_364" data-name="Path 364" d="M14.065,13.094c-.415,0-.749-.011-.985-.033a1.1,1.1,0,0,1-.947-1.22,1.067,1.067,0,0,1,1.138-1.012c1.89.186,12.64-.643,17.634-1.123a1.072,1.072,0,0,1,1.138,1.017,1.1,1.1,0,0,1-.952,1.217c-2.959.283-13.275,1.153-17.027,1.153" transform="translate(19.323 17.193)" fill="#a78a6a"/>
        <path id="Path_365" data-name="Path 365" d="M23.914,14.371H17.623a1.124,1.124,0,0,1,0-2.243h6.291a1.124,1.124,0,0,1,0,2.243" transform="translate(26.408 21.492)" fill="#a78a6a"/>
        <path id="Path_366" data-name="Path 366" d="M27.313,14.775H22.072a1.124,1.124,0,0,1,0-2.243h5.241a1.124,1.124,0,0,1,0,2.243" transform="translate(33.493 22.208)" fill="#a78a6a"/>
        <path id="Path_367" data-name="Path 367" d="M19.708,15.087l-.065,0a46.365,46.365,0,0,1-7.526-1.15,1.129,1.129,0,0,1-.768-1.356,1.044,1.044,0,0,1,1.268-.821,44.96,44.96,0,0,0,7.152,1.089,1.1,1.1,0,0,1,.983,1.186,1.08,1.08,0,0,1-1.045,1.053" transform="translate(18.035 20.776)" fill="#a78a6a"/>
        <path id="Path_368" data-name="Path 368" d="M21.267,19.479a.96.96,0,0,1-.316-.053,112.082,112.082,0,0,1-10.625-4.344,1.157,1.157,0,0,1-.534-1.48,1.023,1.023,0,0,1,1.385-.568,110.391,110.391,0,0,0,10.407,4.255,1.138,1.138,0,0,1,.682,1.408,1.058,1.058,0,0,1-1,.782" transform="translate(15.459 22.925)" fill="#a78a6a"/>
        <path id="Path_369" data-name="Path 369" d="M22.866,17.917a1.077,1.077,0,0,1-.207-.022l-5.241-1.12a1.121,1.121,0,0,1-.822-1.32,1.049,1.049,0,0,1,1.232-.879l5.244,1.12a1.121,1.121,0,0,1,.822,1.32,1.068,1.068,0,0,1-1.027.9" transform="translate(26.408 25.791)" fill="#a78a6a"/>
        <path id="Path_370" data-name="Path 370" d="M30.6,23.207c-3.742,0-13.008-3.557-18.2-5.677a1.144,1.144,0,0,1-.6-1.447,1.026,1.026,0,0,1,1.354-.646c8.6,3.512,14.961,5.528,17.447,5.528a1.124,1.124,0,0,1,0,2.243" transform="translate(18.679 27.223)" fill="#a78a6a"/>
        <path id="Path_371" data-name="Path 371" d="M26.266,20.342a1.015,1.015,0,0,1-.254-.033l-4.193-1.12a1.132,1.132,0,0,1-.765-1.361,1.049,1.049,0,0,1,1.273-.815l4.193,1.12a1.132,1.132,0,0,1,.762,1.361,1.066,1.066,0,0,1-1.017.848" transform="translate(33.493 30.088)" fill="#a78a6a"/>
        <path id="Path_372" data-name="Path 372" d="M30.129,21.958h0Zm0,2.243c-1.1,0-7.93-2.392-10.816-3.421a1.138,1.138,0,0,1-.661-1.417,1.034,1.034,0,0,1,1.325-.71c4.424,1.577,9.426,3.241,10.168,3.3a1.125,1.125,0,0,1-.016,2.243" transform="translate(29.63 32.955)" fill="#a78a6a"/>
        <path id="Path_373" data-name="Path 373" d="M23.509,25.321a.985.985,0,0,1-.475-.122,44.163,44.163,0,0,1-6.46-4.6,1.173,1.173,0,0,1-.182-1.572,1,1,0,0,1,1.47-.194A43,43,0,0,0,23.986,23.2a1.161,1.161,0,0,1,.459,1.508,1.047,1.047,0,0,1-.936.613" transform="translate(25.765 32.954)" fill="#a78a6a"/>
        <path id="Path_374" data-name="Path 374" d="M22.949,28.207a1.007,1.007,0,0,1-.643-.236c-.21-.175-5.15-4.283-6.232-5.439a1.176,1.176,0,0,1,0-1.586,1,1,0,0,1,1.483,0c.822.879,4.634,4.092,6.035,5.256a1.168,1.168,0,0,1,.184,1.572,1.024,1.024,0,0,1-.827.432" transform="translate(25.12 36.538)" fill="#a78a6a"/>
        <path id="Path_375" data-name="Path 375" d="M27.958,17.916a.916.916,0,0,1-.171-.017l-6.294-1.12a1.119,1.119,0,0,1-.861-1.289,1.058,1.058,0,0,1,1.206-.92l6.291,1.12a1.118,1.118,0,0,1,.864,1.289,1.075,1.075,0,0,1-1.035.937" transform="translate(32.849 25.792)" fill="#a78a6a"/>
      </g>
    </g>
    <g id="Group_391" data-name="Group 391" transform="translate(-64.426 -0.5)">
      <line id="Line_29" data-name="Line 29" x2="14.852" y2="13.815" transform="translate(242.5 4073.5)" fill="none" stroke="#a78a6a" stroke-width="3"/>
      <line id="Line_30" data-name="Line 30" x1="14.852" y2="13.815" transform="translate(242.5 4073.5)" fill="none" stroke="#a78a6a" stroke-width="3"/>
    </g>
  </g>
</svg>
