<svg xmlns="http://www.w3.org/2000/svg" xmlns:xlink="http://www.w3.org/1999/xlink" width="65" height="65" viewBox="0 0 65 65">
  <defs>
    <clipPath id="clip-path">
      <rect id="Rectangle_314" data-name="Rectangle 314" width="65" height="65" fill="#a78a6a" stroke="#a78a6a" stroke-width="1"/>
    </clipPath>
  </defs>
  <g id="Group_357" data-name="Group 357" transform="translate(0 0)">
    <g id="Group_356" data-name="Group 356" transform="translate(0 0)" clip-path="url(#clip-path)">
      <path id="Path_376" data-name="Path 376" d="M8.389,7.339V23.7a1.052,1.052,0,0,1-.347.778L2.788,29.2a2.109,2.109,0,0,0-.69,1.559,1.742,1.742,0,0,0,1.74,1.74H6.291a1.049,1.049,0,0,1,1.048,1.05V60.807a2.1,2.1,0,0,0,2.1,2.1H55.566a2.1,2.1,0,0,0,2.1-2.1V33.549a1.049,1.049,0,0,1,1.048-1.05h2.453a1.742,1.742,0,0,0,1.74-1.74,2.1,2.1,0,0,0-.692-1.559L32.5,2.459,16.428,16.924a1.049,1.049,0,0,1-1.75-.778V7.339ZM55.566,65H9.437a4.2,4.2,0,0,1-4.193-4.193V34.6H3.838A3.843,3.843,0,0,1,0,30.759a4.213,4.213,0,0,1,1.385-3.115l4.906-4.419V6.292a1.049,1.049,0,0,1,1.048-1.05h8.387a1.049,1.049,0,0,1,1.05,1.05v7.5L31.8.27a1.045,1.045,0,0,1,1.4,0L63.615,27.642A4.213,4.213,0,0,1,65,30.759,3.84,3.84,0,0,1,61.165,34.6H59.759v26.21A4.2,4.2,0,0,1,55.566,65" transform="translate(0 -0.001)" fill="#a78a6a" stroke="#a78a6a" stroke-width="1"/>
      <path id="Path_377" data-name="Path 377" d="M13.5,17.99a1.573,1.573,0,1,0,1.572,1.572A1.57,1.57,0,0,0,13.5,17.99" transform="translate(19.003 28.662)" fill="#a78a6a" stroke="#a78a6a" stroke-width="1"/>
      <path id="Path_378" data-name="Path 378" d="M20.357,19.706a1.042,1.042,0,0,1-.742-.306,5.245,5.245,0,0,0-7.414,0,1.048,1.048,0,1,1-1.481-1.483,7.338,7.338,0,0,1,10.378,0,1.048,1.048,0,0,1-.742,1.789" transform="translate(16.591 25.12)" fill="#a78a6a" stroke="#a78a6a" stroke-width="1"/>
      <path id="Path_379" data-name="Path 379" d="M27.538,19.122a1.046,1.046,0,0,1-.742-.306,11.529,11.529,0,0,0-16.309,0A1.049,1.049,0,0,1,9,17.333a13.633,13.633,0,0,1,19.276,0,1.048,1.048,0,0,1-.742,1.789" transform="translate(13.859 21.257)" fill="#a78a6a" stroke="#a78a6a" stroke-width="1"/>
      <path id="Path_380" data-name="Path 380" d="M34.719,18.534a1.046,1.046,0,0,1-.742-.306,17.84,17.84,0,0,0-25.2,0A1.049,1.049,0,0,1,7.29,16.745a19.942,19.942,0,0,1,28.171,0,1.048,1.048,0,0,1-.742,1.789" transform="translate(11.125 17.397)" fill="#a78a6a" stroke="#a78a6a" stroke-width="1"/>
    </g>
  </g>
</svg>
