<svg xmlns="http://www.w3.org/2000/svg" xmlns:xlink="http://www.w3.org/1999/xlink" width="65" height="65" viewBox="0 0 65 65">
  <defs>
    <clipPath id="clip-path">
      <rect id="Rectangle_303" data-name="Rectangle 303" width="37.4" height="65" fill="#a78a6a"/>
    </clipPath>
  </defs>
  <g id="Group_370" data-name="Group 370" transform="translate(-159 -3480)">
    <rect id="Rectangle_326" data-name="Rectangle 326" width="65" height="65" transform="translate(159 3480)" fill="none"/>
    <g id="Group_336" data-name="Group 336" transform="translate(159.2 3480)">
      <g id="Group_335" data-name="Group 335" transform="translate(13.8 0)" clip-path="url(#clip-path)">
        <path id="Path_314" data-name="Path 314" d="M3.928,2.461A2,2,0,0,0,2.036,4.544l.449,55.762a1.994,1.994,0,0,0,1.926,2.049l28.659-.271A2,2,0,0,0,34.962,60L34.513,4.236a1.992,1.992,0,0,0-1.929-2.046ZM33.086,64.149,4.429,64.42A3.984,3.984,0,0,1,.574,60.325L.125,4.561A4,4,0,0,1,3.912.4L32.569.125a3.984,3.984,0,0,1,3.855,4.094l.449,55.762a4,4,0,0,1-3.787,4.168" transform="translate(0.201 0.227)" fill="#a78a6a"/>
        <path id="Path_315" data-name="Path 315" d="M3.928,2.461A2,2,0,0,0,2.036,4.544l.449,55.762a1.994,1.994,0,0,0,1.926,2.049l28.659-.271A2,2,0,0,0,34.962,60L34.513,4.236a1.992,1.992,0,0,0-1.929-2.046ZM33.086,64.149,4.429,64.42A3.984,3.984,0,0,1,.574,60.325L.125,4.561A4,4,0,0,1,3.912.4L32.569.125a3.984,3.984,0,0,1,3.855,4.094l.449,55.762A4,4,0,0,1,33.086,64.149Z" transform="translate(0.201 0.227)" fill="#a78a6a"/>
        <path id="Path_316" data-name="Path 316" d="M35.492,5.108,1.1,5.433A1,1,0,0,1,.141,4.409a1,1,0,0,1,.947-1.041l34.388-.324a1,1,0,0,1,.963,1.024,1,1,0,0,1-.947,1.041" transform="translate(0.227 5.543)" fill="#a78a6a"/>
        <path id="Path_317" data-name="Path 317" d="M35.492,5.108,1.1,5.433A1,1,0,0,1,.141,4.409a1,1,0,0,1,.947-1.041l34.388-.324a1,1,0,0,1,.963,1.024A1,1,0,0,1,35.492,5.108Z" transform="translate(0.227 5.543)" fill="#a78a6a"/>
        <path id="Path_318" data-name="Path 318" d="M35.639,21.944l-34.388.324A1.036,1.036,0,0,1,1.236,20.2l34.388-.324a1.036,1.036,0,0,1,.016,2.065" transform="translate(0.464 36.211)" fill="#a78a6a"/>
        <path id="Path_319" data-name="Path 319" d="M35.639,21.944l-34.388.324A1.036,1.036,0,0,1,1.236,20.2l34.388-.324a1.036,1.036,0,0,1,.016,2.065Z" transform="translate(0.464 36.211)" fill="#a78a6a"/>
        <path id="Path_320" data-name="Path 320" d="M11.358,3.7l-4.777.045a1,1,0,0,1-.963-1.024,1,1,0,0,1,.947-1.041l4.777-.045a1,1,0,0,1,.963,1.024A1,1,0,0,1,11.358,3.7" transform="translate(9.046 2.969)" fill="#a78a6a"/>
        <path id="Path_321" data-name="Path 321" d="M11.358,3.7l-4.777.045a1,1,0,0,1-.963-1.024,1,1,0,0,1,.947-1.041l4.777-.045a1,1,0,0,1,.963,1.024A1,1,0,0,1,11.358,3.7Z" transform="translate(9.046 2.969)" fill="#a78a6a"/>
        <path id="Path_322" data-name="Path 322" d="M10.829,3.679l-.955.008a.993.993,0,0,1-.963-1.024,1,1,0,0,1,.947-1.041l.958-.008a1,1,0,0,1,.961,1.024,1,1,0,0,1-.947,1.041" transform="translate(14.348 2.94)" fill="#a78a6a"/>
        <path id="Path_323" data-name="Path 323" d="M10.829,3.679l-.955.008a.993.993,0,0,1-.963-1.024,1,1,0,0,1,.947-1.041l.958-.008a1,1,0,0,1,.961,1.024A1,1,0,0,1,10.829,3.679Z" transform="translate(14.348 2.94)" fill="#a78a6a"/>
        <path id="Path_324" data-name="Path 324" d="M8.068,14.629a1.554,1.554,0,0,0,.026,3.1,1.554,1.554,0,0,0-.026-3.1" transform="translate(10.704 26.649)" fill="#a78a6a"/>
        <path id="Path_325" data-name="Path 325" d="M8.068,14.629a1.554,1.554,0,0,0,.026,3.1,1.554,1.554,0,0,0-.026-3.1Z" transform="translate(10.704 26.649)" fill="#a78a6a"/>
        <path id="Path_326" data-name="Path 326" d="M14.333,16.458a.912.912,0,0,1-.679-.3,4.525,4.525,0,0,0-6.755.065.9.9,0,0,1-1.349.011,1.093,1.093,0,0,1-.013-1.459,6.335,6.335,0,0,1,9.456-.09,1.094,1.094,0,0,1,.013,1.462.92.92,0,0,1-.673.308" transform="translate(8.477 22.98)" fill="#a78a6a"/>
        <path id="Path_327" data-name="Path 327" d="M14.333,16.458a.912.912,0,0,1-.679-.3,4.525,4.525,0,0,0-6.755.065.9.9,0,0,1-1.349.011,1.093,1.093,0,0,1-.013-1.459,6.335,6.335,0,0,1,9.456-.09,1.094,1.094,0,0,1,.013,1.462A.92.92,0,0,1,14.333,16.458Z" transform="translate(8.477 22.98)" fill="#a78a6a"/>
        <path id="Path_328" data-name="Path 328" d="M20.873,16.038a.912.912,0,0,1-.679-.3,9.96,9.96,0,0,0-14.859.141.9.9,0,0,1-1.349.011,1.087,1.087,0,0,1-.013-1.459,11.77,11.77,0,0,1,17.561-.166,1.091,1.091,0,0,1,.013,1.462.92.92,0,0,1-.673.308" transform="translate(5.954 18.981)" fill="#a78a6a"/>
        <path id="Path_329" data-name="Path 329" d="M20.873,16.038a.912.912,0,0,1-.679-.3,9.96,9.96,0,0,0-14.859.141.9.9,0,0,1-1.349.011,1.087,1.087,0,0,1-.013-1.459,11.77,11.77,0,0,1,17.561-.166,1.091,1.091,0,0,1,.013,1.462A.92.92,0,0,1,20.873,16.038Z" transform="translate(5.954 18.981)" fill="#a78a6a"/>
        <path id="Path_330" data-name="Path 330" d="M27.411,15.62a.912.912,0,0,1-.679-.3,15.39,15.39,0,0,0-22.964.217.906.906,0,0,1-1.352.011,1.09,1.09,0,0,1-.01-1.459,17.2,17.2,0,0,1,25.665-.243,1.094,1.094,0,0,1,.013,1.462.92.92,0,0,1-.673.308" transform="translate(3.432 14.981)" fill="#a78a6a"/>
        <path id="Path_331" data-name="Path 331" d="M27.411,15.62a.912.912,0,0,1-.679-.3,15.39,15.39,0,0,0-22.964.217.906.906,0,0,1-1.352.011,1.09,1.09,0,0,1-.01-1.459,17.2,17.2,0,0,1,25.665-.243,1.094,1.094,0,0,1,.013,1.462A.92.92,0,0,1,27.411,15.62Z" transform="translate(3.432 14.981)" fill="#a78a6a"/>
      </g>
    </g>
  </g>
</svg>
