<svg id="Group_340" data-name="Group 340" xmlns="http://www.w3.org/2000/svg" xmlns:xlink="http://www.w3.org/1999/xlink" width="65" height="65" viewBox="0 0 65 65">
  <defs>
    <clipPath id="clip-path">
      <rect id="Rectangle_305" data-name="Rectangle 305" width="65" height="65" fill="none" stroke="#a78a6a" stroke-width="3"/>
    </clipPath>
  </defs>
  <g id="Group_339" data-name="Group 339" transform="translate(0 0)" clip-path="url(#clip-path)">
    <path id="Path_333" data-name="Path 333" d="M41.947,15.526H9.381V8.014H41.947Zm6.979,47.552c7.829-.459,13.748-6.238,13.748-12.875V46.335c0-2.694-2.041-5.088-5.062-5.939l-12.7-3.584V26.8c0-2.075-1.99-3.758-4.44-3.758s-4.443,1.683-4.443,3.758V48.083L32.38,45A8.392,8.392,0,0,0,21.91,45l-.687.583L37.4,59.444h0A16.367,16.367,0,0,0,48.926,63.078ZM15.3,44.327a1.381,1.381,0,0,1-1.481,1.253,1.27,1.27,0,1,1,0-2.506A1.381,1.381,0,0,1,15.3,44.327ZM27.145,34.309a1.5,1.5,0,1,1-1.481-1.253A1.383,1.383,0,0,1,27.145,34.309Zm-11.843,0a1.381,1.381,0,0,1-1.481,1.253,1.27,1.27,0,1,1,0-2.506A1.381,1.381,0,0,1,15.3,34.309ZM27.145,24.291a1.5,1.5,0,0,1-2.962,0,1.5,1.5,0,0,1,2.962,0Zm-11.843,0a1.381,1.381,0,0,1-1.481,1.253,1.38,1.38,0,0,1-1.478-1.253,1.38,1.38,0,0,1,1.478-1.253A1.381,1.381,0,0,1,15.3,24.291Zm5.921,28.8H6.421C3.151,53.092.5,50.849.5,48.083V5.509C.5,2.743,3.151.5,6.421.5H44.909c3.27,0,5.921,2.243,5.921,5.009V33.056" transform="translate(0.913 0.696)" fill="none" stroke="#a78a6a" stroke-width="3"/>
  </g>
</svg>
