<svg xmlns="http://www.w3.org/2000/svg" xmlns:xlink="http://www.w3.org/1999/xlink" width="65" height="65" viewBox="0 0 65 65">
  <defs>
    <clipPath id="clip-path">
      <rect id="Rectangle_304" data-name="Rectangle 304" width="65" height="65" fill="none" stroke="#a78a6a" stroke-width="3"/>
    </clipPath>
  </defs>
  <g id="Group_338" data-name="Group 338" transform="translate(0 0)">
    <g id="Group_337" data-name="Group 337" transform="translate(0 0)" clip-path="url(#clip-path)">
      <path id="Path_332" data-name="Path 332" d="M29.627,36.811,25.6,36.666l.1-5.5,4.029.145Zm-8.415-.3-4.029-.145.1-5.5,4.029.142Zm17.061-11.3-4.029-.145.106-5.5,4.029.145Zm-8.417-.3-4.026-.142.1-5.5,4.029.145Zm-8.417-.3-4.029-.145.106-5.5,4.026.145ZM38.5,13.305l-4.026-.145.1-5.5,4.026.142Zm-8.419-.3-4.026-.145.1-5.5,4.029.145Zm-8.415-.3L17.64,12.56l.1-5.5,4.029.145ZM13.471.873l-.616,32.114M43.118,1.559,42.4,38.778M6.459,37.493,7.115,3.266C7.147,1.612,8.187.31,9.445.356l23.57.843L46.5,1.681c1.255.043,2.25,1.42,2.218,3.072l-.57,29.412m-9.4,9.38-28.4-1.015m34.161,1.424L36.827,32.905a1.638,1.638,0,0,0-2.807-.1,3.451,3.451,0,0,0-.072,3.836L45.382,53.092,38.5,52.08c-1.192-.178-2.216,1.154-2.146,2.788a2.837,2.837,0,0,0,1.067,2.218l17.02,5.932m-9.3-18.167-2.045-2.937a3.45,3.45,0,0,1,.075-3.833,1.638,1.638,0,0,1,2.807.1l2.045,2.937m.623.9-2.04-2.94a3.442,3.442,0,0,1,.072-3.833,1.64,1.64,0,0,1,2.807.1l2.042,2.94m.628.9-2.042-2.937a3.446,3.446,0,0,1,.075-3.833,1.638,1.638,0,0,1,2.807.1l2.04,2.937,3.558,5.115a21.932,21.932,0,0,1,3.382,7.9,7.686,7.686,0,0,0,1.161,2.584l.512.735M6.138,38.482l3.6-4.812a1.871,1.871,0,0,1,3.208.046,3.966,3.966,0,0,1,.471,3.349,8.476,8.476,0,0,1-2.2,4.13A5.477,5.477,0,0,0,9.9,44.065l0,.023s-.434,3.859-2.665,4.631M10.28,59.753l.084-4.443a8.86,8.86,0,0,1,.555-2.93l.186-.484A7.361,7.361,0,0,1,12.4,49.75c2.093-2.465,3-3.411,3.7-7.013M.354,58.448.68,41.511a13.267,13.267,0,0,1,2.535-7.772l3.4-4.407" transform="translate(0.501 0.813)" fill="none" stroke="#a78a6a" stroke-linecap="round" stroke-linejoin="round" stroke-width="3"/>
    </g>
  </g>
</svg>
