<svg id="Group_306" data-name="Group 306" xmlns="http://www.w3.org/2000/svg" xmlns:xlink="http://www.w3.org/1999/xlink" width="65" height="65" viewBox="0 0 65 65">
  <defs>
    <clipPath id="clip-path">
      <rect id="Rectangle_289" data-name="Rectangle 289" width="65" height="65" fill="none" stroke="#707070" stroke-width="3"/>
    </clipPath>
  </defs>
  <g id="Group_305" data-name="Group 305" transform="translate(0 0)" clip-path="url(#clip-path)">
    <path id="Path_312" data-name="Path 312" d="M15.213,38.074V52.736m23.64-14.662V52.736M6.348,35.875a8.167,8.167,0,0,1,8.126-8.064H39.592a8.167,8.167,0,0,1,8.126,8.064v16.86H6.348ZM27.031,4.353a8.8,8.8,0,1,1-8.865,8.8A8.83,8.83,0,0,1,27.031,4.353Zm-13.3,7.331H40.33" transform="translate(15.557 10.551)" fill="none" stroke="#a78a6a" stroke-width="3"/>
    <path id="Path_313" data-name="Path 313" d="M.353,4.9A14.376,14.376,0,0,1,10.7.5,14.114,14.114,0,0,1,21.04,4.9M4.787,9.3A8.124,8.124,0,0,1,10.7,6.366,8.116,8.116,0,0,1,16.606,9.3" transform="translate(0.865 1.211)" fill="none" stroke="#a78a6a" stroke-width="3"/>
  </g>
</svg>
