<svg xmlns="http://www.w3.org/2000/svg" width="65" height="65" viewBox="0 0 65 65">
  <g id="Group_302" data-name="Group 302" transform="translate(0 -0.001)">
    <path id="Path_308" data-name="Path 308" d="M2.945,14.774h8.843V17.73H2.945ZM5.894,0V11.821H1.474L0,13.3V19.2l1.474,1.478h4.42V65H8.843V20.682h4.423L14.737,19.2V13.3l-1.471-1.475H8.843V0Z" transform="translate(0 0.001)" fill="#a78a6a"/>
    <path id="Path_309" data-name="Path 309" d="M8.138,48.746h8.843V51.7H8.138ZM11.087,0V45.793H6.667L5.193,47.271V53.18l1.474,1.478h4.42V65h2.949V54.658h4.42L19.93,53.18V47.271l-1.474-1.478h-4.42V0Z" transform="translate(19.938 0.003)" fill="#a78a6a"/>
    <path id="Path_310" data-name="Path 310" d="M13.332,25.113h8.843v2.956H13.332ZM16.281,0V22.164H11.858l-1.471,1.475v5.909l1.471,1.478h4.423V65h2.945V31.025H23.65l1.471-1.478V23.639L23.65,22.164H19.227V0Z" transform="translate(39.879 0.001)" fill="#a78a6a"/>
  </g>
</svg>
