<svg xmlns="http://www.w3.org/2000/svg" xmlns:xlink="http://www.w3.org/1999/xlink" width="65" height="65" viewBox="0 0 65 65">
  <defs>
    <clipPath id="clip-path">
      <rect id="Rectangle_342" data-name="Rectangle 342" width="65" height="65" fill="none" stroke="#a78a6a" stroke-width="3"/>
    </clipPath>
  </defs>
  <g id="Group_376" data-name="Group 376" transform="translate(0 0)">
    <g id="Group_375" data-name="Group 375" transform="translate(0 0)" clip-path="url(#clip-path)">
      <path id="Path_397" data-name="Path 397" d="M31.855,62.252a29.067,29.067,0,0,1-13.878-3.506l.06-.1a28.961,28.961,0,0,0,13.817,3.489c15.239,0,27.637-11.679,27.637-26.035s-12.4-26.035-27.637-26.035a28.949,28.949,0,0,0-13.817,3.491l-.06-.1A29.055,29.055,0,0,1,31.855,9.95c15.307,0,27.76,11.731,27.76,26.151S47.162,62.252,31.855,62.252Z" transform="translate(4.154 1.589)" fill="none" stroke="#a78a6a" stroke-linecap="round" stroke-linejoin="round" stroke-width="3"/>
      <rect id="Rectangle_330" data-name="Rectangle 330" width="6.331" height="4.473" transform="translate(32.842 7.124)" fill="none" stroke="#a78a6a" stroke-linecap="round" stroke-linejoin="round" stroke-width="3"/>
      <rect id="Rectangle_331" data-name="Rectangle 331" width="12.663" height="5.964" rx="0.643" transform="translate(29.677 1.16)" fill="none" stroke="#a78a6a" stroke-linecap="round" stroke-linejoin="round" stroke-width="3"/>
      <path id="Path_398" data-name="Path 398" d="M32.791,36.577a4.132,4.132,0,0,1-5.6,0,3.578,3.578,0,0,1,0-5.272c.98-.922,7.421-4.871,12-7.638a1.2,1.2,0,0,1,1.7,1.6C37.963,29.586,33.771,35.654,32.791,36.577Z" transform="translate(6.016 3.749)" fill="none" stroke="#a78a6a" stroke-linecap="round" stroke-linejoin="round" stroke-width="3"/>
      <path id="Path_399" data-name="Path 399" d="M46.894,12.466a.062.062,0,0,0-.086,0,.054.054,0,0,0,0,.081l1.635,1.541-3.314,3.122a.055.055,0,0,0,0,.082.065.065,0,0,0,.086,0L48.53,14.17l1.635,1.541a.064.064,0,0,0,.043.017.059.059,0,0,0,.043-.017.054.054,0,0,0,0-.081Z" transform="translate(10.423 1.988)" fill="none" stroke="#a78a6a" stroke-linecap="round" stroke-linejoin="round" stroke-width="3"/>
      <rect id="Rectangle_332" data-name="Rectangle 332" width="0.123" height="2.319" transform="translate(35.947 11.597)" fill="none" stroke="#a78a6a" stroke-linecap="round" stroke-linejoin="round" stroke-width="3"/>
      <rect id="Rectangle_333" data-name="Rectangle 333" width="0.123" height="2.319" transform="translate(35.947 61.463)" fill="none" stroke="#a78a6a" stroke-linecap="round" stroke-linejoin="round" stroke-width="3"/>
      <path id="Path_400" data-name="Path 400" d="M39.564,15.056,39.456,15l1.231-2.007.107.059Z" transform="translate(9.117 2.074)" fill="none" stroke="#a78a6a" stroke-linecap="round" stroke-linejoin="round" stroke-width="3"/>
      <path id="Path_401" data-name="Path 401" d="M47.04,22.466l-.062-.1,2.132-1.16.062.1Z" transform="translate(10.855 3.387)" fill="none" stroke="#a78a6a" stroke-linecap="round" stroke-linejoin="round" stroke-width="3"/>
      <rect id="Rectangle_334" data-name="Rectangle 334" width="2.462" height="0.116" transform="translate(61.245 37.632)" fill="none" stroke="#a78a6a" stroke-linecap="round" stroke-linejoin="round" stroke-width="3"/>
      <path id="Path_402" data-name="Path 402" d="M49.111,43.966l-2.132-1.16.062-.1,2.132,1.16Z" transform="translate(10.855 6.82)" fill="none" stroke="#a78a6a" stroke-linecap="round" stroke-linejoin="round" stroke-width="3"/>
      <path id="Path_403" data-name="Path 403" d="M40.688,52.3l-1.231-2.007.107-.059,1.231,2.007Z" transform="translate(9.117 8.021)" fill="none" stroke="#a78a6a" stroke-linecap="round" stroke-linejoin="round" stroke-width="3"/>
      <rect id="Rectangle_335" data-name="Rectangle 335" width="18.467" height="0.116" transform="translate(1.231 37.632)" fill="none" stroke="#a78a6a" stroke-linecap="round" stroke-linejoin="round" stroke-width="3"/>
      <rect id="Rectangle_336" data-name="Rectangle 336" width="13.543" height="0.116" transform="translate(6.155 31.833)" fill="none" stroke="#a78a6a" stroke-linecap="round" stroke-linejoin="round" stroke-width="3"/>
      <rect id="Rectangle_337" data-name="Rectangle 337" width="8.619" height="0.116" transform="translate(11.08 26.035)" fill="none" stroke="#a78a6a" stroke-linecap="round" stroke-linejoin="round" stroke-width="3"/>
      <rect id="Rectangle_338" data-name="Rectangle 338" width="3.694" height="0.116" transform="translate(16.004 20.236)" fill="none" stroke="#a78a6a" stroke-linecap="round" stroke-linejoin="round" stroke-width="3"/>
      <rect id="Rectangle_339" data-name="Rectangle 339" width="13.543" height="0.116" transform="translate(6.155 43.43)" fill="none" stroke="#a78a6a" stroke-linecap="round" stroke-linejoin="round" stroke-width="3"/>
      <rect id="Rectangle_340" data-name="Rectangle 340" width="8.619" height="0.116" transform="translate(11.08 49.228)" fill="none" stroke="#a78a6a" stroke-linecap="round" stroke-linejoin="round" stroke-width="3"/>
      <rect id="Rectangle_341" data-name="Rectangle 341" width="3.694" height="0.116" transform="translate(16.004 55.027)" fill="none" stroke="#a78a6a" stroke-linecap="round" stroke-linejoin="round" stroke-width="3"/>
    </g>
  </g>
</svg>
