<svg id="Group_390" data-name="Group 390" xmlns="http://www.w3.org/2000/svg" xmlns:xlink="http://www.w3.org/1999/xlink" width="65" height="65" viewBox="0 0 65 65">
  <defs>
    <clipPath id="clip-path">
      <rect id="Rectangle_349" data-name="Rectangle 349" width="65" height="65" fill="none" stroke="#a78a6a" stroke-width="3"/>
    </clipPath>
  </defs>
  <g id="Group_389" data-name="Group 389">
    <g id="Group_388" data-name="Group 388" clip-path="url(#clip-path)">
      <path id="Path_415" data-name="Path 415" d="M56.83,18.724V15.331A1.131,1.131,0,0,0,55.7,14.2H24.031A1.132,1.132,0,0,0,22.9,15.331v.76a7.844,7.844,0,0,1,2.422,3.763h.536A14.108,14.108,0,0,0,32.8,33.993L36,35.841A1.131,1.131,0,0,1,36,37.8l-3.2,1.847a14.108,14.108,0,0,0-6.939,14.137H24.031A1.132,1.132,0,0,0,22.9,54.916v3.393a1.131,1.131,0,0,0,1.131,1.131H55.7a1.13,1.13,0,0,0,1.131-1.131V54.916A1.131,1.131,0,0,0,55.7,53.785H53.872a14.108,14.108,0,0,0-6.939-14.137l-3.2-1.847a1.131,1.131,0,0,1,0-1.959l3.2-1.849a14.108,14.108,0,0,0,6.939-14.138H55.7A1.131,1.131,0,0,0,56.83,18.724Z" transform="translate(6.87 4.26)" fill="none" stroke="#a78a6a" stroke-linecap="round" stroke-linejoin="round" stroke-width="3"/>
      <path id="Path_416" data-name="Path 416" d="M24.4,8.8A7.8,7.8,0,1,1,16.6,1,7.8,7.8,0,0,1,24.4,8.8Zm1.56,35.723a7.83,7.83,0,0,0,6.24-7.641V25.96a7.822,7.822,0,0,0-7.8-7.8H8.8A7.822,7.822,0,0,0,1,25.96V36.881a7.83,7.83,0,0,0,6.24,7.641v14.2a4.68,4.68,0,1,0,9.36,0v0a4.68,4.68,0,1,0,9.36,0v-14.2Z" transform="translate(0.3 0.3)" fill="none" stroke="#a78a6a" stroke-linecap="round" stroke-linejoin="round" stroke-width="3"/>
    </g>
  </g>
</svg>
