<svg id="Group_385" data-name="Group 385" xmlns="http://www.w3.org/2000/svg" xmlns:xlink="http://www.w3.org/1999/xlink" width="65" height="65" viewBox="0 0 65 65">
  <defs>
    <clipPath id="clip-path">
      <rect id="Rectangle_343" data-name="Rectangle 343" width="65" height="65" fill="none" stroke="#a78a6a" stroke-width="3"/>
    </clipPath>
  </defs>
  <g id="Group_380" data-name="Group 380" transform="translate(0 0)">
    <g id="Group_379" data-name="Group 379" clip-path="url(#clip-path)">
      <path id="Path_406" data-name="Path 406" d="M44.333,45.339c0-6.216,4.312-11.255,9.63-11.255V17.2H1V48.152c0,4.663,3.233,8.442,7.222,8.442H46.741a6.372,6.372,0,0,0,3.339-.961A11.454,11.454,0,0,1,44.333,45.339Z" transform="translate(0.204 6.999)" fill="none" stroke="#a78a6a" stroke-linecap="round" stroke-linejoin="round" stroke-width="3"/>
    </g>
  </g>
  <g id="Group_384" data-name="Group 384" transform="translate(0 0)">
    <g id="Group_383" data-name="Group 383" clip-path="url(#clip-path)">
      <path id="Path_409" data-name="Path 409" d="M46.741,5.2H45.3V7.732a3.161,3.161,0,0,1-2.889,3.377,3.161,3.161,0,0,1-2.889-3.377V5.2H15.444V7.732a3.161,3.161,0,0,1-2.889,3.377A3.161,3.161,0,0,1,9.667,7.732V5.2H8.222C4.233,5.2,1,8.979,1,13.642v8.442H53.963V13.642C53.963,8.979,50.73,5.2,46.741,5.2Z" transform="translate(0.204 2.116)" fill="none" stroke="#a78a6a" stroke-linecap="round" stroke-linejoin="round" stroke-width="3"/>
      <path id="Path_410" data-name="Path 410" d="M11.089,12.818h0A3.161,3.161,0,0,1,8.2,9.442V4.377A3.161,3.161,0,0,1,11.089,1a3.161,3.161,0,0,1,2.889,3.377V9.442A3.161,3.161,0,0,1,11.089,12.818Z" transform="translate(1.67 0.407)" fill="none" stroke="#a78a6a" stroke-linecap="round" stroke-linejoin="round" stroke-width="3"/>
      <path id="Path_411" data-name="Path 411" d="M35.889,12.818h0A3.161,3.161,0,0,1,33,9.442V4.377A3.161,3.161,0,0,1,35.889,1a3.161,3.161,0,0,1,2.889,3.377V9.442A3.161,3.161,0,0,1,35.889,12.818Z" transform="translate(6.722 0.407)" fill="none" stroke="#a78a6a" stroke-linecap="round" stroke-linejoin="round" stroke-width="3"/>
      <ellipse id="Ellipse_32" data-name="Ellipse 32" cx="0.602" cy="0.703" rx="0.602" ry="0.703" transform="translate(10.231 34.751)" fill="none" stroke="#a78a6a" stroke-linecap="round" stroke-linejoin="round" stroke-width="3"/>
      <ellipse id="Ellipse_33" data-name="Ellipse 33" cx="0.602" cy="0.703" rx="0.602" ry="0.703" transform="translate(18.657 34.751)" fill="none" stroke="#a78a6a" stroke-linecap="round" stroke-linejoin="round" stroke-width="3"/>
      <ellipse id="Ellipse_34" data-name="Ellipse 34" cx="0.602" cy="0.703" rx="0.602" ry="0.703" transform="translate(27.083 34.751)" fill="none" stroke="#a78a6a" stroke-linecap="round" stroke-linejoin="round" stroke-width="3"/>
      <ellipse id="Ellipse_35" data-name="Ellipse 35" cx="0.602" cy="0.703" rx="0.602" ry="0.703" transform="translate(35.509 34.751)" fill="none" stroke="#a78a6a" stroke-linecap="round" stroke-linejoin="round" stroke-width="3"/>
      <ellipse id="Ellipse_36" data-name="Ellipse 36" cx="0.602" cy="0.703" rx="0.602" ry="0.703" transform="translate(43.935 34.751)" fill="none" stroke="#a78a6a" stroke-linecap="round" stroke-linejoin="round" stroke-width="3"/>
      <ellipse id="Ellipse_37" data-name="Ellipse 37" cx="0.602" cy="0.703" rx="0.602" ry="0.703" transform="translate(10.231 43.193)" fill="none" stroke="#a78a6a" stroke-linecap="round" stroke-linejoin="round" stroke-width="3"/>
      <ellipse id="Ellipse_38" data-name="Ellipse 38" cx="0.602" cy="0.703" rx="0.602" ry="0.703" transform="translate(18.657 43.193)" fill="none" stroke="#a78a6a" stroke-linecap="round" stroke-linejoin="round" stroke-width="3"/>
      <ellipse id="Ellipse_39" data-name="Ellipse 39" cx="0.602" cy="0.703" rx="0.602" ry="0.703" transform="translate(27.083 43.193)" fill="none" stroke="#a78a6a" stroke-linecap="round" stroke-linejoin="round" stroke-width="3"/>
      <ellipse id="Ellipse_40" data-name="Ellipse 40" cx="0.602" cy="0.703" rx="0.602" ry="0.703" transform="translate(35.509 43.193)" fill="none" stroke="#a78a6a" stroke-linecap="round" stroke-linejoin="round" stroke-width="3"/>
      <ellipse id="Ellipse_41" data-name="Ellipse 41" cx="0.602" cy="0.703" rx="0.602" ry="0.703" transform="translate(10.231 51.634)" fill="none" stroke="#a78a6a" stroke-linecap="round" stroke-linejoin="round" stroke-width="3"/>
      <ellipse id="Ellipse_42" data-name="Ellipse 42" cx="0.602" cy="0.703" rx="0.602" ry="0.703" transform="translate(18.657 51.634)" fill="none" stroke="#a78a6a" stroke-linecap="round" stroke-linejoin="round" stroke-width="3"/>
      <ellipse id="Ellipse_43" data-name="Ellipse 43" cx="0.602" cy="0.703" rx="0.602" ry="0.703" transform="translate(27.083 51.634)" fill="none" stroke="#a78a6a" stroke-linecap="round" stroke-linejoin="round" stroke-width="3"/>
      <ellipse id="Ellipse_44" data-name="Ellipse 44" cx="0.602" cy="0.703" rx="0.602" ry="0.703" transform="translate(35.509 51.634)" fill="none" stroke="#a78a6a" stroke-linecap="round" stroke-linejoin="round" stroke-width="3"/>
      <ellipse id="Ellipse_45" data-name="Ellipse 45" cx="9.63" cy="11.255" rx="9.63" ry="11.255" transform="translate(44.537 41.082)" fill="none" stroke="#a78a6a" stroke-linecap="round" stroke-linejoin="round" stroke-width="3"/>
      <rect id="Rectangle_344" data-name="Rectangle 344" width="0.241" height="8.442" transform="translate(54.046 48.117)" fill="none" stroke="#a78a6a" stroke-linecap="round" stroke-linejoin="round" stroke-width="3"/>
      <rect id="Rectangle_345" data-name="Rectangle 345" width="7.222" height="0.28" transform="translate(50.556 52.197)" fill="none" stroke="#a78a6a" stroke-linecap="round" stroke-linejoin="round" stroke-width="3"/>
    </g>
  </g>
</svg>
